<svg viewBox="0 0 32 32" xml:space="preserve" xmlns="http://www.w3.org/2000/svg" overflow="visible" enable-background="new 0 0 32 32"><path d="M16 0C7.2 0 0 7.2 0 16s7.2 16 16 16 16-7.2 16-16S24.8 0 16 0zm4 29.7V25c0-1.5-.5-2.5-1.1-3 3.6-.4 7.3-1.8 7.3-7.9 0-1.7-.6-3.2-1.6-4.3.2-.4.7-2-.2-4.2 0 0-1.3-.4-4.4 1.6-1.3-.4-2.6-.5-4-.5s-2.7.2-4 .5c-3.1-2-4.4-1.6-4.4-1.6-.9 2.2-.3 3.9-.2 4.3-1 1.1-1.6 2.5-1.6 4.3 0 6.1 3.7 7.5 7.3 7.9-.5.4-.9 1.1-1 2.1-.9.4-3.2 1.1-4.7-1.3 0 0-.8-1.5-2.5-1.6 0 0-1.6 0-.1 1 0 0 1 .5 1.8 2.3 0 0 .9 3.1 5.4 2.1V29.6c-5.8-1.7-10-7-10-13.3 0-7.7 6.3-14 14-14s14 6.3 14 14c0 6.3-4.2 11.6-10 13.4z" fill-rule="evenodd" clip-rule="evenodd" fill="#ffffff" class="fill-c9cacc" data-darkreader-inline-fill="" style="--darkreader-inline-fill:#181a1b;"></path></svg>